<?xml version="1.0" encoding="UTF-8" standalone="no"?>
<!-- Created with Inkscape (http://www.inkscape.org/) -->

<svg
   width="500mm"
   height="500mm"
   viewBox="0 0 500 500"
   version="1.1"
   id="svg1"
   xmlns:xlink="http://www.w3.org/1999/xlink"
   xmlns="http://www.w3.org/2000/svg"
   xmlns:svg="http://www.w3.org/2000/svg">
  <defs
     id="defs1">
    <pattern
       xlink:href="#invert grid"
       preserveAspectRatio="xMidYMid"
       id="pattern67"
       patternTransform="scale(1)"
       x="0"
       y="0" />
    <pattern
       patternUnits="userSpaceOnUse"
       width="12"
       height="12"
       preserveAspectRatio="xMidYMid"
       id="invert grid"
       x="0"
       y="0"
       style="fill:#ffffff">
      <rect
         style="stroke:none;paint-order:markers fill stroke"
         id="rect2-0"
         width="10"
         height="10"
         x="0"
         y="0" />
    </pattern>
    <clipPath
       clipPathUnits="userSpaceOnUse"
       id="clipPath64">
      <path
         id="path64"
         style="stroke-width:0.1;stroke-linecap:square;paint-order:markers fill stroke;stop-color:#000000"
         d="m -880.82767,-187.29769 h 1640.84 v 73.28155 h -1640.84 z" />
    </clipPath>
    <clipPath
       clipPathUnits="userSpaceOnUse"
       id="clipPath63">
      <path
         id="path63"
         style="stroke-width:0.0999999;stroke-linecap:square;paint-order:markers fill stroke;stop-color:#000000"
         d="m 1691.1994,-792.32001 h 1634.8919 v 92.82806 H 1691.1994 Z" />
    </clipPath>
    <clipPath
       clipPathUnits="userSpaceOnUse"
       id="clipPath55">
      <path
         id="path55"
         style="stroke-width:0.1;stroke-linecap:square;paint-order:markers fill stroke;stop-color:#000000"
         d="m 1736.6147,-745.57287 h 1589.4765 v 72.46715 H 1736.6147 Z" />
    </clipPath>
    <clipPath
       clipPathUnits="userSpaceOnUse"
       id="clipPath54">
      <path
         id="path54"
         style="stroke-width:0.0999999;stroke-linecap:square;paint-order:markers fill stroke;stop-color:#000000"
         d="m 1691.1994,-792.32001 h 1634.8919 v 92.82806 H 1691.1994 Z" />
    </clipPath>
    <clipPath
       clipPathUnits="userSpaceOnUse"
       id="clipPath5">
      <path
         id="path5"
         style="stroke-width:0.1;stroke-linecap:square;paint-order:markers fill stroke;stop-color:#000000"
         d="m 438.25066,553.76374 859.87054,0 v 201.39554 l -859.87054,0 z" />
    </clipPath>
    <pattern
       xlink:href="#Cubes"
       preserveAspectRatio="none"
       id="pattern31"
       patternTransform="scale(0.4)"
       x="0"
       y="0" />
    <pattern
       patternUnits="userSpaceOnUse"
       width="142"
       height="123"
       patternTransform="scale(0.4)"
       id="Cubes"
       preserveAspectRatio="none"
       style="fill:#ffffff"
       x="0"
       y="0">
      <path
         id="path14"
         style="fill-opacity:0.6;stroke-width:2;stroke-miterlimit:10"
         d="M 0.00195313,0.001953 V 0.0039061 L 35.509766,20.503906 71.009766,0.0078124 106.50977,20.503906 142,0.0136718 V 0.001953 Z" />
      <path
         id="path16"
         style="fill-opacity:0.3;stroke-width:2;stroke-miterlimit:10"
         d="m 35.503902,61.5 0.0039,0.002 v 41 L 0,123.00195 V 81.998047 Z M 142.01171,0 l 0.004,0.002 v 41 l -35.5079,20.499953 V 20.498047 Z m -71.000002,0 0.0039,0.002 v 41 L 35.507806,61.501953 V 20.498047 Z m 35.492192,61.5 0.004,0.002 v 41 L 71,123.00195 V 81.998047 Z" />
      <path
         id="path18"
         style="fill-opacity:1;stroke-width:2;stroke-miterlimit:10"
         d="m 106.49609,61.5 -0.004,0.002 v 41 L 142,123.00195 V 81.998047 Z M 71.0039,0 71,0.002 v 41 l 35.50781,20.499953 V 20.498047 Z m -71,0 L 0,0.002 v 41 L 35.507806,61.501953 V 20.498047 Z m 35.492194,61.5 -0.0039,0.002 v 41 L 71,123.00195 V 81.998047 Z" />
      <path
         id="path20"
         style="fill-opacity:0.6;stroke-width:2;stroke-miterlimit:10"
         d="m 70.998047,41.001953 -35.5,20.496094 L 0,41.003906 v 40.998047 l 0.00195313,0.002 35.49999987,-20.496094 35.5,20.496094 L 106.50195,61.507812 142,82.001953 V 41.003906 l -0.002,-0.002 -35.5,20.496094 z" />
      <path
         id="path26"
         style="fill-opacity:0.6;stroke-width:2;stroke-miterlimit:10"
         d="M 35.505859,102.50195 0.00195313,123 v 0.002 H 142 v -0.008 l -35.49414,-20.49219 -35.500001,20.49609 z" />
    </pattern>
    <clipPath
       clipPathUnits="userSpaceOnUse"
       id="clipPath52">
      <path
         id="path52"
         style="stroke-width:0.1;stroke-linecap:square;paint-order:markers fill stroke;stop-color:#000000"
         d="m -880.82767,-187.29769 h 1640.84 v 73.28155 h -1640.84 z" />
    </clipPath>
  </defs>
  <g
     id="layer1"
     style="stroke:url(#pattern31);fill:none;fill-opacity:1">
    <circle
       style="fill:none;stroke:url(#pattern67);stroke-width:9.00804;stroke-dasharray:none;stroke-opacity:1;fill-opacity:1"
       id="path2"
       cx="250"
       cy="250"
       r="245.49599" />
  </g>
</svg>
